<?xml version="1.0" encoding="utf-8"?>
<!-- Generator: Adobe Illustrator 21.1.0, SVG Export Plug-In . SVG Version: 6.00 Build 0)  -->
<svg version="1.1" id="a00-ic-bonidollars" xmlns="http://www.w3.org/2000/svg" xmlns:xlink="http://www.w3.org/1999/xlink" x="0px"
	 y="0px" width="40px" height="40px" viewBox="0 0 40 40" style="enable-background:new 0 0 40 40;" xml:space="preserve">
<style type="text/css">
	.st0{fill:#00884E;}
	.st1{fill:#595959;}
</style>
<g>
	<path class="st0" d="M28.8,21.6c-0.1-0.1-0.1-0.4-0.2-0.8h-1.3c0,0.9,0.3,1.5,0.8,1.9c0.3,0.2,0.8,0.3,1.4,0.4v1H30v-1
		c0.5,0,0.9-0.2,1.3-0.4c0.6-0.4,0.9-0.9,0.9-1.8c0-0.6-0.2-1.1-0.6-1.4c-0.3-0.2-0.8-0.4-1.5-0.7V17c0.3,0,0.5,0.1,0.7,0.4
		c0.1,0.1,0.1,0.3,0.1,0.6H32c0-0.8-0.3-1.3-0.8-1.7C30.9,16.2,30.5,16,30,16v-0.6h-0.5V16c-0.3,0-0.6,0.1-0.7,0.1
		c-0.3,0.1-0.5,0.2-0.8,0.5c-0.2,0.2-0.3,0.4-0.4,0.6c-0.1,0.2-0.1,0.5-0.1,0.8c0,0.4,0.1,0.8,0.4,1.2c0.3,0.3,0.7,0.6,1.3,0.7
		l0.4,0.1v2C29.1,22,28.9,21.9,28.8,21.6z M30,20.2c0.3,0.1,0.5,0.2,0.6,0.3c0.2,0.2,0.3,0.4,0.3,0.7c0,0.4-0.1,0.6-0.3,0.8
		C30.4,22,30.2,22,30,22V20.2z M29,18.5c-0.2-0.2-0.3-0.4-0.3-0.6c0-0.2,0.1-0.4,0.2-0.6c0.1-0.1,0.3-0.2,0.6-0.2v1.7
		C29.3,18.6,29.1,18.6,29,18.5z"/>
	<path class="st0" d="M29.7,26.4c3.9,0,7-3.1,7-7s-3.1-7-7-7s-7,3.1-7,7S25.9,26.4,29.7,26.4z M29.7,13.8c3.1,0,5.6,2.5,5.6,5.6
		c0,3.1-2.5,5.6-5.6,5.6c-3.1,0-5.6-2.5-5.6-5.6C24.1,16.3,26.7,13.8,29.7,13.8z"/>
	<path class="st1" d="M39.1,3.5C28.1,3.3,21.9,7.2,20,8.6c-1.9-1.4-8.1-5.2-19.1-5.1L0,3.5v28.4l0.9,0c12.4-0.2,18.5,5,18.5,5.1
		l0.6,0.5l0.6-0.5c0.1-0.1,6.2-5.3,18.5-5.1l0.9,0V3.5L39.1,3.5z M1.7,5.2c10.3,0.1,16.1,3.9,17.4,4.9v24.6
		c-2.5-1.6-8.2-4.4-17.4-4.5V5.2z M38.3,30.2c-9.2,0-14.9,2.9-17.4,4.5V10.1c1.3-1,7.1-4.8,17.4-4.9V30.2z"/>
	<path class="st0" d="M17.2,18.2c-0.1-0.1-3.2-2.6-12.9-3.6l-0.1,1.1c9.3,1,12.3,3.4,12.3,3.4L17.2,18.2z"/>
	<path class="st0" d="M4.2,20.5c9.3,1,12.3,3.4,12.3,3.4l0.7-0.8c-0.1-0.1-3.2-2.6-12.9-3.6L4.2,20.5z"/>
</g>
</svg>
