<?xml version="1.0" encoding="utf-8"?>
<!-- Generator: Adobe Illustrator 21.1.0, SVG Export Plug-In . SVG Version: 6.00 Build 0)  -->
<svg version="1.1" id="a00-ic-carte-perdue" xmlns="http://www.w3.org/2000/svg" xmlns:xlink="http://www.w3.org/1999/xlink"
	 x="0px" y="0px" width="40px" height="40px" viewBox="0 0 40 40" style="enable-background:new 0 0 40 40;" xml:space="preserve">
<style type="text/css">
	.st0{fill:#00884E;}
	.st1{fill:#595959;}
</style>
<g>
	<path class="st0" d="M40.2,22.8l-4.7-4.7l-5.2,5.2l-5.2-5.2l-4.7,4.7l5.2,5.2l-5.2,5.2l4.7,4.7l5.2-5.2l5.2,5.2l4.7-4.7L35,28
		L40.2,22.8z M38.1,33.4l-2.3,2.3l-5.4-5.4L25,35.8l-2.3-2.3L28,28l-5.4-5.4l2.3-2.3l5.4,5.4l5.4-5.4l2.3,2.3L32.7,28L38.1,33.4z"/>
	<path class="st1" d="M1.9,28V16h35.3v1.7H39V7.3c0-1.9-1.5-3.4-3.4-3.4H3.7c-1.9,0-3.5,1.5-3.5,3.4V28c0,1.9,1.6,3.5,3.5,3.5H20
		v-1.7H3.7C2.7,29.7,1.9,28.9,1.9,28z M36.3,10.8l-3.4,3.4H30l3.4-3.4C33.4,10.8,36.3,10.8,36.3,10.8z M28.8,14.2h-3.2l3.4-3.4h3.2
		L28.8,14.2z M24.4,14.2h-3.1l3.4-3.4h3L24.4,14.2L24.4,14.2z M20.1,14.2H1.9v-3.4h21.6L20.1,14.2z M34.1,14.2l3.2-3.2v3.2H34.1z
		 M3.7,5.6h31.9c0.9,0,1.7,0.8,1.7,1.7V9H1.9V7.3C1.9,6.4,2.7,5.6,3.7,5.6z"/>
	<rect x="3.7" y="17.7" class="st1" width="6" height="1.7"/>
</g>
</svg>
