<?xml version="1.0" encoding="utf-8"?>
<!-- Generator: Adobe Illustrator 21.1.0, SVG Export Plug-In . SVG Version: 6.00 Build 0)  -->
<svg version="1.1" id="a00-ic-changement-adresse" xmlns="http://www.w3.org/2000/svg" xmlns:xlink="http://www.w3.org/1999/xlink"
	 x="0px" y="0px" width="40px" height="40px" viewBox="0 0 40 40" style="enable-background:new 0 0 40 40;" xml:space="preserve">
<style type="text/css">
	.st0{fill:#595959;}
	.st1{fill:#00884E;}
</style>
<g>
	<path class="st0" d="M20,1.6l-17.1,9v19l17.1,9l17-9v-19L20,1.6z M13.1,15.5v3.2l-2.8-1.5v-3.1l15.1-8l2.7,1.4L13.1,15.5z M20,3.2
		l3.9,2L9.2,13.1l-4-2.1L20,3.2z M18.9,36.4L4.4,28.7V12.2l4.5,2.3V18l5.7,3v-3.5l4.4,2.3v16.6H18.9z M20,18.8l-5-2.6l14.7-7.8
		l5.1,2.7L20,18.8z M35.6,28.7l-15.2,8.1V20.3l15.2-8.1V28.7z"/>
	<path class="st1" d="M24.3,32.1c0.1,0,0.2,0,0.3-0.1l8.3-4.4c0.4-0.2,0.5-0.6,0.3-1s-0.6-0.5-1-0.3L24,30.8c-0.4,0.2-0.5,0.6-0.3,1
		C23.8,32,24,32.1,24.3,32.1z"/>
	<path class="st1" d="M29,21.7c0.1,0.1,0.2,0.1,0.4,0.1c0.2,0,0.5-0.1,0.6-0.3l0.4-0.6v4.5c0,0.4,0.3,0.7,0.7,0.7
		c0.4,0,0.7-0.3,0.7-0.7v-5.7l0.6,0.4c0.3,0.2,0.8,0.1,1-0.2c0.2-0.3,0.1-0.8-0.2-1l-2.3-1.6l-2.1,3.5C28.6,21.1,28.7,21.5,29,21.7z
		"/>
	<path class="st1" d="M23.9,24.4c0.1,0.1,0.2,0.1,0.4,0.1c0.2,0,0.5-0.1,0.6-0.3l0.4-0.6v4.5c0,0.4,0.3,0.7,0.7,0.7
		c0.4,0,0.7-0.3,0.7-0.7v-5.7l0.6,0.4c0.3,0.2,0.8,0.1,1-0.2c0.2-0.3,0.1-0.8-0.2-1L25.8,20l-2.1,3.5C23.5,23.8,23.6,24.2,23.9,24.4
		z"/>
</g>
</svg>
