<?xml version="1.0" encoding="utf-8"?>
<!-- Generator: Adobe Illustrator 21.1.0, SVG Export Plug-In . SVG Version: 6.00 Build 0)  -->
<svg version="1.1" id="a00-ic-concours" xmlns="http://www.w3.org/2000/svg" xmlns:xlink="http://www.w3.org/1999/xlink" x="0px"
	 y="0px" width="40px" height="40px" viewBox="0 0 40 40" style="enable-background:new 0 0 40 40;" xml:space="preserve">
<style type="text/css">
	.st0{fill:#00884E;}
	.st1{fill:#595959;}
</style>
<g>
	<path class="st0" d="M27.6,26.8c0.3,0,0.6-0.1,0.9-0.3c0.4-0.3,0.7-0.9,0.5-1.4l-1.3-6.7l5.2-5.1c0.4-0.4,0.5-1,0.3-1.5
		s-0.7-0.9-1.2-1l-7-0.6l-3.1-6.7c-0.2-0.5-0.7-0.9-1.3-0.9c-0.6,0-1.1,0.3-1.3,0.9l-3.1,6.7l-7,0.6c-0.6,0.1-1,0.4-1.2,1
		c-0.2,0.5-0.1,1.1,0.3,1.5l5.2,5.2L12.2,25c-0.1,0.5,0.1,1.1,0.5,1.4s1,0.4,1.5,0.1l6.3-3.1l6.3,3.2C27.1,26.7,27.3,26.8,27.6,26.8
		z M10,12.4l6.9-0.6c0.3,0,0.6-0.2,0.7-0.5l3-6.6l1.6,3.4l-8,8.4l0.6,0.6l7.8-8.2l1.1,2.3c0,0.1,0.1,0.2,0.2,0.2l-9,9.4l0.5-2.7
		c0.1-0.3,0-0.6-0.2-0.8L10,12.4z M14,24.7l0.4-2.2l10.2-10.7l3.4,0.3L17.9,22.8L14,24.7z M20.6,21.6c-0.1,0-0.3,0-0.4,0.1l9-9.4
		l2,0.2l-5.1,5c-0.2,0.2-0.3,0.5-0.2,0.8l1.3,6.6L21,21.7C20.9,21.6,20.7,21.6,20.6,21.6z"/>
	<path class="st1" d="M38.4,28.9l-3.8-0.3L32.9,25c-0.1-0.3-0.4-0.5-0.7-0.5s-0.6,0.2-0.7,0.5l-1.7,3.6L26,28.9
		c-0.3,0-0.6,0.2-0.7,0.5s0,0.6,0.2,0.8l2.8,2.8l-0.7,3.6c-0.1,0.3,0.1,0.6,0.3,0.8c0.2,0.2,0.6,0.2,0.8,0.1l3.4-1.7l3.4,1.7
		c0.1,0.1,0.2,0.1,0.4,0.1s0.3-0.1,0.5-0.2c0.2-0.2,0.4-0.5,0.3-0.8L36,33l2.8-2.8c0.2-0.2,0.3-0.5,0.2-0.8
		C38.9,29.1,38.7,28.9,38.4,28.9z M34.8,32.4c-0.1,0.1-0.1,0.2-0.1,0.4l0.6,3.1l-2.9-1.5c-0.1,0-0.1,0-0.2,0c-0.1,0-0.1,0-0.2,0
		l-2.9,1.5l0.6-3.1c0-0.1,0-0.3-0.1-0.4L27.1,30l3.3-0.3c0.1,0,0.3-0.1,0.3-0.2l1.4-3.2l1.4,3.2c0.1,0.1,0.2,0.2,0.3,0.2l3.3,0.3
		L34.8,32.4z"/>
	<path class="st1" d="M39.9,10.2c-0.1-0.4-0.5-0.7-0.9-0.7L34.3,9l-2.1-4.5c-0.2-0.4-0.6-0.6-1-0.7l0,0c-0.4,0-0.8,0.2-1,0.6l-2.2,5
		l1.3,0.6l1.9-4.2l1.9,4.2c0.1,0.2,0.3,0.4,0.6,0.4l4.4,0.4L34.9,14c-0.2,0.2-0.2,0.4-0.2,0.6l0.8,4.2l-4-2l-0.6,1.3l4.6,2.3
		c0.2,0.1,0.3,0.1,0.5,0.1s0.5-0.1,0.7-0.2c0.3-0.3,0.5-0.7,0.4-1.1l-0.9-4.5l3.5-3.4C40,11,40.1,10.6,39.9,10.2z"/>
	<path class="st1" d="M14.6,28.6h-1.5l0.7,3.8l-4.2-2.1c-0.2-0.1-0.5-0.1-0.7,0l-4.3,2.1l0.9-4.5c0-0.2,0-0.5-0.2-0.7l-3.5-3.5
		l4.7-0.4c0.3,0,0.5-0.2,0.6-0.4l2.1-4.5l1.6,3.5h1.6l-2.2-4.7c-0.2-0.4-0.6-0.7-1-0.7c-0.5,0-0.9,0.3-1,0.7L6,21.9l-5,0.4
		c-0.5,0-0.8,0.3-1,0.8c-0.1,0.5,0,0.9,0.3,1.3L4,28l-0.9,4.7c-0.1,0.4,0.1,0.9,0.4,1.1c0.4,0.3,0.8,0.3,1.2,0.1l4.5-2.2l4.5,2.3
		c0.2,0.1,0.3,0.1,0.5,0.1c0.3,0,0.5-0.1,0.7-0.2c0.4-0.3,0.5-0.7,0.4-1.1L14.6,28.6z"/>
</g>
</svg>
