<?xml version="1.0" encoding="utf-8"?>
<!-- Generator: Adobe Illustrator 21.1.0, SVG Export Plug-In . SVG Version: 6.00 Build 0)  -->
<svg version="1.1" id="a00-ic-hammeconage" xmlns="http://www.w3.org/2000/svg" xmlns:xlink="http://www.w3.org/1999/xlink" x="0px"
	 y="0px" width="40px" height="40px" viewBox="0 0 40 40" style="enable-background:new 0 0 40 40;" xml:space="preserve">
<style type="text/css">
	.st0{fill:#595959;}
	.st1{fill:#00884E;}
</style>
<g>
	<rect x="4" y="7" class="st0" width="1.9" height="1.9"/>
	<rect x="7.8" y="7" class="st0" width="1.9" height="1.9"/>
	<rect x="11.5" y="7" class="st0" width="1.9" height="1.9"/>
	<path class="st1" d="M21.4,14.7c-0.3-0.5-0.8-0.8-1.4-0.8s-1.1,0.3-1.4,0.8l-8.4,14.5c-0.3,0.6-0.3,1.2,0,1.7s0.8,0.8,1.4,0.8h16.8
		c0.6,0,1.1-0.3,1.4-0.8c0.3-0.6,0.3-1.2,0-1.7L21.4,14.7z M28.5,30c0,0-0.1,0.1-0.2,0.1H11.6c-0.1,0-0.2-0.1-0.2-0.1
		s-0.1-0.1,0-0.2l8.4-14.5c0.1-0.1,0.2-0.1,0.2-0.1s0.1,0,0.1,0.1l8.4,14.5C28.6,29.9,28.5,30,28.5,30z"/>
	<path class="st1" d="M20,26.1c0.4,0,0.7-0.3,0.7-0.7v-4.8c0-0.4-0.3-0.7-0.7-0.7s-0.7,0.3-0.7,0.7v4.8C19.3,25.8,19.6,26.1,20,26.1
		z"/>
	<circle class="st1" cx="20" cy="27.8" r="0.8"/>
	<path class="st0" d="M0,4.1v31.8h40V4.1H0z M38.3,5.7v4.1H1.6V5.7H38.3z M1.6,34.3V11.7h36.7v22.6H1.6z"/>
</g>
</svg>
