<svg id="ic-profil" xmlns="http://www.w3.org/2000/svg" width="26" height="26" viewBox="0 0 26 26"><path fill="#fff" d="M13 0C5.8 0 0 5.8 0 13s5.8 13 13 13 13-5.8 13-13S20.2 0 13 0zM9.9 11.5c-.1-.6-.2-1.4-.2-1.9s.2-.8.5-1l.3-.2v-.1-.2c0-.4.3-.7.8-.9.5-.2 1.1-.4 1.8-.4h.2c1 0 1.9.2 2.5.7.6.4.9 1.1.9 2 0 .5 0 1.2-.2 2.1l-.1.8.8-.1c.3 0 .4.1.4.3 0 .4-.1.7-.3 1.1-.1.3-.3.6-.4 1 0 .1 0 .2-.3.1l-.6-.1-.1.6c-.1.5-.2.7-.4 1l-.3.3c-.6.6-1.1 1-1.9 1-.8 0-1.4-.6-1.9-1.1l-.1-.1-.2-.2c-.3-.3-.4-.6-.4-1l-.1-.6-.6.1c-.2 0-.3-.1-.3-.1-.1-.4-.2-.7-.4-1-.2-.4-.4-.8-.3-1.1 0-.2.1-.3.4-.3l.8.1-.3-.8zM6.3 22.7c.1 0 .1 0 0 0 1.2-1.1 2.7-1.9 4.6-2.2l.5-.1v-2c.4.3.9.5 1.6.5.7 0 1.2-.2 1.6-.5v2l.5.1c1.9.3 3.4 1.1 4.5 2.1-1.9 1.4-4.3 2.2-6.8 2.2-2.3 0-4.6-.8-6.5-2.1zm14.4-.9c-1.2-1.2-2.9-2-4.8-2.5v-2.1l.2-.2c.3-.3.5-.7.7-1.2.5-.1.9-.5 1.1-1 .1-.3.2-.5.3-.8.3-.5.5-1.1.4-1.8-.1-.6-.4-1.1-1-1.3.1-.7.1-1.3.1-1.8-.1-1.2-.6-2.1-1.4-2.8-.8-.6-1.9-1-3.2-1h-.2c-.4 0-1.4.1-2.2.5-.9.4-1.4 1-1.5 1.8-.4.6-.7 1.2-.7 1.9 0 .5 0 1 .1 1.6-.5.2-.9.7-1 1.2-.1.7.2 1.3.4 1.8.1.3.2.5.3.8.1.5.5.9 1.1 1 .1.5.4.9.7 1.2l.2.2v2.1c-1.9.4-3.5 1.2-4.7 2.4l-.2.2c-2.5-2.2-4.2-5.4-4.2-9C1.2 6.5 6.5 1.2 13 1.2S24.8 6.5 24.8 13c0 3.5-1.6 6.7-4.1 8.8z"/></svg>