<?xml version="1.0" encoding="utf-8"?>
<!-- Generator: Adobe Illustrator 22.0.0, SVG Export Plug-In . SVG Version: 6.00 Build 0)  -->
<svg version="1.1" id="ic-n1-recherche" xmlns="http://www.w3.org/2000/svg" xmlns:xlink="http://www.w3.org/1999/xlink" x="0px"
	 y="0px" width="20px" height="20px" viewBox="0 0 20 20" enable-background="new 0 0 20 20" xml:space="preserve">
<g>
	<defs>
		<polygon id="SVGID_1_" points="571.6,-320.9 565.3,-314.5 558.9,-320.9 557.3,-319.3 563.6,-312.9 557.3,-306.5 558.9,-304.9 
			565.3,-311.3 571.6,-304.9 573.3,-306.5 566.9,-312.9 573.3,-319.3 		"/>
	</defs>
	<clipPath id="SVGID_2_">
		<use xlink:href="#SVGID_1_"  overflow="visible"/>
	</clipPath>
	<g clip-path="url(#SVGID_2_)">
		<defs>
			<rect id="SVGID_3_" x="-589.7" y="-391.9" width="1200" height="802"/>
		</defs>
		<clipPath id="SVGID_4_">
			<use xlink:href="#SVGID_3_"  overflow="visible"/>
		</clipPath>
		<rect x="552.3" y="-325.9" clip-path="url(#SVGID_4_)" fill="#3E3E3E" width="26" height="26"/>
	</g>
</g>
<g>
	<defs>
		<polygon id="SVGID_5_" points="571.6,-320.9 565.3,-314.5 558.9,-320.9 557.3,-319.3 563.6,-312.9 557.3,-306.5 558.9,-304.9 
			565.3,-311.3 571.6,-304.9 573.3,-306.5 566.9,-312.9 573.3,-319.3 		"/>
	</defs>
	<clipPath id="SVGID_6_">
		<use xlink:href="#SVGID_5_"  overflow="visible"/>
	</clipPath>
	<g clip-path="url(#SVGID_6_)">
		<defs>
			<rect id="SVGID_7_" x="-589.7" y="-391.9" width="1200" height="802"/>
		</defs>
		<clipPath id="SVGID_8_">
			<use xlink:href="#SVGID_7_"  overflow="visible"/>
		</clipPath>
		<rect x="552.3" y="-325.9" clip-path="url(#SVGID_8_)" fill="#3E3E3E" width="26" height="26"/>
	</g>
</g>
<g>
	<path fill="#3E3E3E" d="M19.9,18.6l-6.7-6.7c-0.1-0.1-0.2-0.1-0.2-0.1c0.9-1.2,1.5-2.8,1.5-4.4c0-4-3.2-7.3-7.2-7.3
		C3.2,0,0,3.3,0,7.3c0,4,3.2,7.3,7.2,7.3c1.8,0,3.4-0.6,4.6-1.7c0,0.1,0.1,0.1,0.1,0.2l6.7,6.7c0.2,0.2,0.5,0.2,0.7,0l0.5-0.5
		C20,19.1,20,18.8,19.9,18.6z M7.2,13.1c-3.2,0-5.8-2.6-5.8-5.8c0-3.2,2.6-5.8,5.8-5.8c3.2,0,5.8,2.6,5.8,5.8
		C13,10.5,10.4,13.1,7.2,13.1z"/>
</g>
</svg>
