<?xml version="1.0" encoding="utf-8"?>
<!-- Generator: Adobe Illustrator 21.1.0, SVG Export Plug-In . SVG Version: 6.00 Build 0)  -->
<svg version="1.1" id="a00-ic-securite" xmlns="http://www.w3.org/2000/svg" xmlns:xlink="http://www.w3.org/1999/xlink" x="0px"
	 y="0px" width="40px" height="40px" viewBox="0 0 40 40" style="enable-background:new 0 0 40 40;" xml:space="preserve">
<style type="text/css">
	.st0{fill:#00884E;}
	.st1{fill:#595959;}
</style>
<g>
	<g>
		<polygon class="st0" points="33.6,24.6 21.9,37.1 22.7,37.8 34.4,25.3 		"/>
		<polygon class="st0" points="33.5,28.9 25.4,37.6 26.2,38.4 34.3,29.7 		"/>
		<polygon class="st0" points="34.1,32.6 29.6,37.2 30.4,38 34.8,33.4 		"/>
	</g>
	<g>
		<path class="st1" d="M32.6,14.7l-2.5-0.5c0-0.1,0-0.1,0-0.2v-3.7c0-4.8-4.5-8.7-10.1-8.7S9.9,5.4,9.9,10.2v3.8c0,0,0,0.1,0,0.1
			l-2.5,0.5C6,15,5,16.2,5,17.6v18c0,1.6,1.3,2.9,2.9,2.9h24.2c1.6,0,2.9-1.3,2.9-2.9v-18C35,16.1,34,14.9,32.6,14.7z M19.9,3
			c4.8,0,8.6,3.2,8.6,7.2v3.6l-2.4-0.5v-3c0-2.8-2.7-5.1-6.1-5.1s-6.1,2.3-6.1,5.1v3l-2.6,0.5v-3.6C11.3,6.2,15.2,3,19.9,3z
			 M15.5,10.3c0-2,2-3.6,4.5-3.6s4.5,1.6,4.5,3.6V13c-3-0.4-6-0.4-9,0V10.3z M33.5,35.6c0,0.8-0.6,1.4-1.4,1.4H7.9
			c-0.8,0-1.4-0.6-1.4-1.4v-18c0-0.7,0.5-1.3,1.2-1.4l7.3-1.5c3.3-0.6,6.8-0.6,10.1,0l7.2,1.5c0.7,0.2,1.2,0.7,1.2,1.4V35.6z
			 M34.1,15.9c-0.4-0.5-1-0.8-1.6-0.9C33.2,15.1,33.7,15.4,34.1,15.9z"/>
		<path class="st1" d="M20,19L20,19c-1.3,0.1-2.5,0.6-3.3,1.5c-0.9,0.9-1.3,2.1-1.2,3.4c0.1,1.4,0.8,2.6,1.9,3.4v3.3
			c0,0.6,0.5,1.1,1.1,1.1h3.1c0.6,0,1.1-0.5,1.1-1v-3.4c1.2-0.9,1.9-2.3,1.9-3.7c0-1.3-0.5-2.4-1.4-3.3C22.3,19.5,21.2,19,20,19z
			 M18.5,26.2c-0.9-0.5-1.4-1.4-1.5-2.4c-0.1-0.9,0.2-1.7,0.8-2.3c0.6-0.6,1.4-1,2.2-1s1.6,0.3,2.2,0.9c0.6,0.6,0.9,1.4,0.9,2.2
			c0,1-0.6,2-1.5,2.6c-0.3,0.1-0.4,0.3-0.4,0.6v3.3h-2.3v-3.2C18.9,26.6,18.7,26.3,18.5,26.2z"/>
	</g>
</g>
</svg>
