<?xml version="1.0" encoding="utf-8"?>
<!-- Generator: Adobe Illustrator 21.1.0, SVG Export Plug-In . SVG Version: 6.00 Build 0)  -->
<svg version="1.1" id="a00-ic-taux" xmlns="http://www.w3.org/2000/svg" xmlns:xlink="http://www.w3.org/1999/xlink" x="0px"
	 y="0px" width="40px" height="40px" viewBox="0 0 40 40" style="enable-background:new 0 0 40 40;" xml:space="preserve">
<style type="text/css">
	.st0{fill:#00884E;}
	.st1{fill:#595959;}
</style>
<g>
	<polygon class="st0" points="19.3,14.7 26.5,19.9 27.1,20.4 27.6,19.8 35.2,9.2 35.5,14.6 36.9,14.5 36.6,7.1 36.5,6.2 35.6,6.4 
		28.5,8.4 28.8,9.8 34,8.4 26.8,18.3 19.5,13 19,12.6 18.5,13.2 9.5,25.6 10.7,26.5 	"/>
	<polygon class="st1" points="5.3,30.6 5.3,4.2 3.8,4.2 3.8,9.4 0,9.4 0,10.9 3.8,10.9 3.8,17 0,17 0,18.5 3.8,18.5 3.8,24.5 
		0,24.5 0,26 3.8,26 3.8,31.3 3.8,32.1 4.2,32.1 9.8,32.1 9.8,35.8 11.3,35.8 11.3,32.1 18.1,32.1 18.1,35.8 19.6,35.8 19.6,32.1 
		25.7,32.1 25.7,35.8 27.2,35.8 27.2,32.1 33.2,32.1 33.2,35.8 34.7,35.8 34.7,32.1 40,32.1 40,30.6 	"/>
</g>
<g>
	<path class="st1" d="M35.6,22.3c0,1.2-0.8,1.9-1.6,1.9c-0.9,0-1.6-0.7-1.6-1.8c0-1,0.6-1.8,1.6-1.8C35,20.5,35.6,21.2,35.6,22.3z
		 M33.4,22.3c0,0.6,0.2,1.1,0.6,1.1c0.4,0,0.6-0.4,0.6-1.1c0-0.6-0.2-1.1-0.6-1.1C33.6,21.3,33.4,21.7,33.4,22.3z M34,26.8l3.4-6
		h0.7l-3.4,6H34z M39.8,24.7c0,1.2-0.8,1.9-1.6,1.9c-0.9,0-1.6-0.7-1.6-1.8c0-1,0.6-1.8,1.6-1.8C39.3,23,39.8,23.7,39.8,24.7z
		 M37.6,24.8c0,0.6,0.2,1.1,0.6,1.1c0.4,0,0.6-0.4,0.6-1.1c0-0.6-0.2-1.1-0.6-1.1C37.8,23.7,37.6,24.2,37.6,24.8z"/>
</g>
</svg>
