<?xml version="1.0" encoding="utf-8"?>
<!-- Generator: Adobe Illustrator 21.1.0, SVG Export Plug-In . SVG Version: 6.00 Build 0)  -->
<svg version="1.1" id="a00-ic-trouver" xmlns="http://www.w3.org/2000/svg" xmlns:xlink="http://www.w3.org/1999/xlink" x="0px"
	 y="0px" width="40px" height="40px" viewBox="0 0 40 40" style="enable-background:new 0 0 40 40;" xml:space="preserve">
<style type="text/css">
	.st0{fill:#595959;}
	.st1{fill:#00884E;}
</style>
<g>
	<path class="st0" d="M29.4,38.3l-0.7-0.9c0-0.1-3.7-5.3-5.6-8.2l1.3-0.9c1.5,2.2,3.8,5.6,5,7.2c1.5-2.2,5.3-7.5,6.1-8.9
		c1-1.6,1.4-2.8,1.4-4.6c0-4.1-3.3-7.4-7.4-7.4h-0.2V13c0.1,0,0.2,0,0.2,0c5,0,9,4.1,9,9.1c0,2-0.5,3.6-1.6,5.4
		c-1.1,1.7-6.6,9.5-6.8,9.9L29.4,38.3z"/>
	<path class="st0" d="M14.5,38.3l-0.7-0.9c-0.3-0.5-8.5-12.2-10.1-14.7c-1.7-2.6-2.3-4.9-2.3-7.9c0-7.2,5.9-13.1,13.1-13.1
		s13.1,5.9,13.1,13.1c0,2.9-0.7,5.2-2.3,7.8c-1.6,2.5-9.8,14.2-10.1,14.7L14.5,38.3z M14.6,3.7c-6.2,0-11.2,5-11.2,11.2
		c0,2.6,0.6,4.5,2,6.8c1.3,2,7.1,10.5,9.1,13.3c2-2.8,7.9-11.3,9.2-13.3c1.4-2.3,2-4.3,2-6.8C25.8,8.8,20.7,3.8,14.6,3.7z"/>
	<g>
		<path class="st1" d="M14.6,19.1c-2.7,0-4.9-2.2-4.9-4.9s2.2-4.9,4.9-4.9s4.9,2.2,4.9,4.9S17.3,19.1,14.6,19.1z M14.6,10.9
			c-1.8,0-3.3,1.5-3.3,3.3s1.5,3.3,3.3,3.3s3.3-1.5,3.3-3.3S16.4,10.9,14.6,10.9z"/>
		<path class="st1" d="M14.6,19.5c-2.9,0-5.3-2.4-5.3-5.3s2.4-5.3,5.3-5.3s5.3,2.4,5.3,5.3S17.5,19.5,14.6,19.5z M14.6,9.7
			c-2.5,0-4.5,2-4.5,4.5s2,4.5,4.5,4.5s4.5-2,4.5-4.5S17,9.7,14.6,9.7z M14.6,17.9c-2.1,0-3.7-1.7-3.7-3.7s1.7-3.7,3.7-3.7
			s3.7,1.7,3.7,3.7S16.6,17.9,14.6,17.9z M14.6,11.3c-1.6,0-2.9,1.3-2.9,2.9s1.3,2.9,2.9,2.9s2.9-1.3,2.9-2.9S16.2,11.3,14.6,11.3z"
			/>
	</g>
</g>
</svg>
